# xmcd CD database file
#
# Track frame offsets:
#	150
#	21255
#	40200
#	57235
#	73812
#	90635
#	109280
#	125787
#	145910
#	166445
#	184190
#	199242
#	221470
#	239410
#	253632
#	278997
#	291110
#
# Disc length: 4194 seconds
#
# Revision: 3
# Processed by: cddbd v1.4PL0 Copyright (c) Steve Scherf et al.
# Submitted via: CDex 1.50beta10
#
DISCID=10106011
DTITLE=Секрет - Не переживай!...
DYEAR=1995
DGENRE=Blues
TTITLE0=В жарких странах
TTITLE1=Ангел дороги
TTITLE2=Сон в руку
TTITLE3=Эй, парень
TTITLE4=Она так любит
TTITLE5=Пора бежать!!!
TTITLE6=Песня гномов
TTITLE7=Иди домой
TTITLE8=Розы и сталь
TTITLE9=Сердце на твоем берегу
TTITLE10=Она считает меня дураком
TTITLE11=Ночь
TTITLE12=Не переживай!
TTITLE13=Кончайте, Папа!
TTITLE14=Rock-n-Roll medley
TTITLE15=Roadrunner
TTITLE16=Не говори мне прощай
EXTD=YEAR: 1995
EXTT0=
EXTT1=
EXTT2=
EXTT3=
EXTT4=
EXTT5=
EXTT6=
EXTT7=
EXTT8=
EXTT9=
EXTT10=
EXTT11=
EXTT12=
EXTT13=
EXTT14=
EXTT15=
EXTT16=
PLAYORDER=
